<svg id="_5296499_fb_facebook_facebook_logo_icon" data-name="5296499_fb_facebook_facebook logo_icon" xmlns="http://www.w3.org/2000/svg" width="42" height="42" viewBox="0 0 42 42">
  <path id="Path_13082" data-name="Path 13082" d="M42,21A21,21,0,1,0,17.719,41.745V27.07H12.387V21h5.332V16.373c0-5.263,3.135-8.17,7.932-8.17a32.293,32.293,0,0,1,4.7.41v5.168H27.7c-2.609,0-3.422,1.619-3.422,3.279V21h5.824l-.931,6.07H24.281V41.745A21.005,21.005,0,0,0,42,21Z" fill="#1877f2"/>
  <path id="Path_13083" data-name="Path 13083" d="M167.788,118.867l.931-6.07h-5.824v-3.939c0-1.661.814-3.279,3.422-3.279h2.648V100.41a32.3,32.3,0,0,0-4.7-.41c-4.8,0-7.932,2.907-7.932,8.17V112.8H151v6.07h5.332v14.675a21.228,21.228,0,0,0,6.563,0V118.867Z" transform="translate(-138.613 -91.797)" fill="#fff"/>
</svg>
