<svg xmlns="http://www.w3.org/2000/svg" width="40.778" height="39.854" viewBox="0 0 40.778 39.854">
  <g id="noun-internet-5375235" transform="translate(-100.872 -36.863)">
    <path id="Path_14909" data-name="Path 14909" d="M269.268,369.532c1.274,6.827,4.038,11.158,6.61,11.158s5.362-4.331,6.61-11.158a45.965,45.965,0,0,0-13.221,0Z" transform="translate(-154.608 -304.991)" fill="#fff" fill-rule="evenodd"/>
    <path id="Path_14910" data-name="Path 14910" d="M276.009,225.3a45.51,45.51,0,0,0-.255-4.878,48.889,48.889,0,0,1-14.01,0,46.842,46.842,0,0,0,0,9.757,48.89,48.89,0,0,1,14.01,0,45.51,45.51,0,0,0,.255-4.878Z" transform="translate(-147.466 -168.529)" fill="#fff" fill-rule="evenodd"/>
    <path id="Path_14911" data-name="Path 14911" d="M407.884,48.454a20.828,20.828,0,0,0,7.145-2.929l.255-.178a20.379,20.379,0,0,0-12.559-8.483c2.369,2.254,4.216,6.356,5.158,11.59Z" transform="translate(-277.138)" fill="#fff" fill-rule="evenodd"/>
    <path id="Path_14912" data-name="Path 14912" d="M479.289,171.11a23.769,23.769,0,0,1-8.419,3.452,50.745,50.745,0,0,1,0,10.89,23.877,23.877,0,0,1,8.419,3.49,20.125,20.125,0,0,0,0-17.756Z" transform="translate(-339.703 -123.255)" fill="#fff" fill-rule="evenodd"/>
    <path id="Path_14913" data-name="Path 14913" d="M151.435,381.58a20.827,20.827,0,0,0-7.082,2.929l-.306.217a20.379,20.379,0,0,0,12.546,8.483c-2.369-2.293-4.216-6.394-5.158-11.629Z" transform="translate(-39.64 -316.492)" fill="#fff" fill-rule="evenodd"/>
    <path id="Path_14914" data-name="Path 14914" d="M102.955,171.1a20.124,20.124,0,0,0,0,17.832,23.98,23.98,0,0,1,8.419-3.452,50.409,50.409,0,0,1,0-10.852,23.873,23.873,0,0,1-8.419-3.528Z" transform="translate(0 -123.249)" fill="#fff" fill-rule="evenodd"/>
    <path id="Path_14915" data-name="Path 14915" d="M414.4,384.5a20.748,20.748,0,0,0-7.133-2.917c-.943,5.235-2.789,9.336-5.158,11.59a20.379,20.379,0,0,0,12.609-8.444Z" transform="translate(-276.57 -316.491)" fill="#fff" fill-rule="evenodd"/>
    <path id="Path_14916" data-name="Path 14916" d="M282.483,60c-1.248-6.827-4.063-11.158-6.61-11.158S270.51,53.171,269.262,60a45.965,45.965,0,0,0,13.221,0Z" transform="translate(-154.602 -10.996)" fill="#fff" fill-rule="evenodd"/>
    <path id="Path_14917" data-name="Path 14917" d="M144.355,45.561a20.82,20.82,0,0,0,7.12,2.9c.943-5.235,2.789-9.336,5.095-11.59a20.378,20.378,0,0,0-12.52,8.444Z" transform="translate(-39.643 -0.011)" fill="#fff" fill-rule="evenodd"/>
  </g>
</svg>
