<svg xmlns="http://www.w3.org/2000/svg" width="40.574" height="40.197" viewBox="0 0 40.574 40.197">
  <path id="noun-price-3266451" d="M95.672,2.805a2.875,2.875,0,0,0-.406.065,6.671,6.671,0,0,0-.786.206c-.54.17-1.134.4-1.727.632s-1.176.46-1.633.627a5.487,5.487,0,0,1-.622.173h-.005a5.42,5.42,0,0,1-.619-.171c-.457-.167-1.04-.4-1.633-.629s-1.2-.463-1.74-.632a6.51,6.51,0,0,0-.778-.2,1.691,1.691,0,0,0-.991.01,1.736,1.736,0,0,0-.85.528,6.564,6.564,0,0,0-.545.592c-.363.435-.751.953-1.125,1.467s-.737,1.03-1.031,1.418a5.623,5.623,0,0,1-.426.481,5.728,5.728,0,0,1-.622.191c-.475.107-1.089.225-1.712.352s-1.25.259-1.8.409a6.666,6.666,0,0,0-.773.258,1.884,1.884,0,0,0-1.25,1.442,6.7,6.7,0,0,0-.144.8c-.07.562-.112,1.2-.149,1.836s-.066,1.26-.1,1.745a5.694,5.694,0,0,1-.1.642l0,0a5.582,5.582,0,0,1-.414.491c-.341.347-.8.778-1.254,1.222s-.915.9-1.294,1.323a6.573,6.573,0,0,0-.508.625,1.73,1.73,0,0,0-.4.915,1.7,1.7,0,0,0,.131.984,6.452,6.452,0,0,0,.307.741c.245.511.56,1.079.872,1.633s.625,1.1.855,1.527a5.516,5.516,0,0,1,.26.59,5.478,5.478,0,0,1-.082.644c-.1.476-.245,1.085-.389,1.705s-.288,1.24-.379,1.8a6.592,6.592,0,0,0-.092.805,1.87,1.87,0,0,0,.8,1.745,6.626,6.626,0,0,0,.667.461c.482.3,1.046.6,1.608.895s1.126.591,1.551.828a5.644,5.644,0,0,1,.535.352,5.257,5.257,0,0,1,.278.582c.173.455.381,1.051.595,1.65s.431,1.2.657,1.718a6.755,6.755,0,0,0,.362.731,1.731,1.731,0,0,0,.667.741,1.689,1.689,0,0,0,.942.293,6.539,6.539,0,0,0,.81.03c.566-.01,1.21-.06,1.844-.114s1.262-.12,1.747-.151a5.078,5.078,0,0,1,.642.012l0,0a5.215,5.215,0,0,1,.548.337c.392.289.889.68,1.393,1.068s1.014.773,1.484,1.088a6.565,6.565,0,0,0,.7.414,1.873,1.873,0,0,0,1.913,0,6.647,6.647,0,0,0,.691-.419c.471-.315.988-.7,1.492-1.09s1-.777,1.39-1.065a5.719,5.719,0,0,1,.545-.342,5.71,5.71,0,0,1,.649-.007c.485.031,1.106.085,1.74.139s1.278.1,1.844.114a6.485,6.485,0,0,0,.805-.023,1.737,1.737,0,0,0,.954-.3,1.7,1.7,0,0,0,.659-.741,6.7,6.7,0,0,0,.359-.729c.226-.519.445-1.116.659-1.715s.419-1.194.592-1.648a5.349,5.349,0,0,1,.278-.585,5.318,5.318,0,0,1,.54-.362c.425-.236.987-.525,1.549-.823s1.122-.6,1.6-.895a6.7,6.7,0,0,0,.669-.461,1.7,1.7,0,0,0,.639-.758,1.728,1.728,0,0,0,.159-.984,6.571,6.571,0,0,0-.094-.8c-.091-.559-.23-1.187-.374-1.806s-.287-1.227-.387-1.7a5.894,5.894,0,0,1-.084-.642v0a5.751,5.751,0,0,1,.26-.587c.23-.429.542-.975.855-1.529s.623-1.122.868-1.633a6.584,6.584,0,0,0,.315-.743,1.863,1.863,0,0,0-.275-1.893,6.642,6.642,0,0,0-.511-.632c-.379-.421-.832-.867-1.289-1.311s-.915-.88-1.256-1.227a5.218,5.218,0,0,1-.416-.5,4.965,4.965,0,0,1-.1-.63c-.039-.485-.063-1.114-.1-1.749s-.078-1.279-.149-1.841a6.611,6.611,0,0,0-.144-.8,1.691,1.691,0,0,0-.424-.892,1.739,1.739,0,0,0-.83-.555,6.734,6.734,0,0,0-.773-.25c-.546-.149-1.171-.28-1.794-.406s-1.245-.245-1.72-.352a5.187,5.187,0,0,1-.615-.193,5.559,5.559,0,0,1-.426-.478c-.295-.387-.666-.9-1.041-1.418s-.752-1.03-1.115-1.465a6.644,6.644,0,0,0-.55-.595A1.926,1.926,0,0,0,95.672,2.8ZM89.223,13.776h2.54v1.636a7.344,7.344,0,0,1,1.522.389,4.219,4.219,0,0,1,1.99,1.39,6.506,6.506,0,0,1,.9,2.607l.067.392H93.218l-.042-.283a2.156,2.156,0,0,0-.8-1.465,2.976,2.976,0,0,0-1.911-.533,3.612,3.612,0,0,0-2.109.466,1.216,1.216,0,0,0-.565,1,.924.924,0,0,0,.218.61v.008a1.773,1.773,0,0,0,.751.513c.192.071.9.284,2.052.6a27.324,27.324,0,0,1,3.532,1.12v-.012a3.851,3.851,0,0,1,1.7,1.361,3.8,3.8,0,0,1,.629,2.205,4.318,4.318,0,0,1-.751,2.411,4.793,4.793,0,0,1-2.119,1.73H93.8a7.105,7.105,0,0,1-2.032.523v1.589h-2.54V30.4a5.8,5.8,0,0,1-2.84-1.088,6.506,6.506,0,0,1-1.99-3.9l-.074-.4H87.4l.042.293a2.913,2.913,0,0,0,.969,1.936,3.517,3.517,0,0,0,2.3.662,3.408,3.408,0,0,0,2.193-.575,1.61,1.61,0,0,0,.664-1.294,1.059,1.059,0,0,0-.543-.979,10.948,10.948,0,0,0-2.3-.761,23.02,23.02,0,0,1-3.663-1.142A3.977,3.977,0,0,1,85.4,21.691a3.99,3.99,0,0,1-.1-3.923,4.185,4.185,0,0,1,1.259-1.435,5.067,5.067,0,0,1,1.6-.729,7.1,7.1,0,0,1,1.058-.231Z" transform="translate(-70.21 -2.803)" fill="#fff"/>
</svg>
