<svg xmlns="http://www.w3.org/2000/svg" width="45.719" height="45.719" viewBox="0 0 45.719 45.719">
  <path id="Path_28394" data-name="Path 28394" d="M306.116,219v.415a7.174,7.174,0,0,1-4.6,6.672,10.976,10.976,0,0,1-10.916,10.03h-7.344a1.429,1.429,0,0,1,0-2.858H290.6a8.088,8.088,0,0,0,7.958-6.672H295.3a1.434,1.434,0,0,1-1.429-1.429v-11.9a1.424,1.424,0,0,1,1.429-1.429h3.4v-3.343a15.454,15.454,0,0,0-30.9,0v3.343h3.4a1.425,1.425,0,0,1,1.429,1.429v11.9a1.434,1.434,0,0,1-1.429,1.429h-3.629a7.177,7.177,0,0,1-7.172-7.172V219a7.155,7.155,0,0,1,4.544-6.658v-3.858a18.31,18.31,0,0,1,36.617,0v3.858A7.169,7.169,0,0,1,306.115,219Z" transform="translate(-260.396 -190.396)" fill="#fff"/>
</svg>
