<svg id="_3225191_app_instagram_logo_media_popular_icon" data-name="3225191_app_instagram_logo_media_popular_icon" xmlns="http://www.w3.org/2000/svg" xmlns:xlink="http://www.w3.org/1999/xlink" width="42" height="42" viewBox="0 0 42 42">
  <defs>
    <linearGradient id="linear-gradient" x1="0.146" y1="0.854" x2="0.854" y2="0.146" gradientUnits="objectBoundingBox">
      <stop offset="0" stop-color="#ffd521"/>
      <stop offset="0.055" stop-color="#ffd020"/>
      <stop offset="0.124" stop-color="#fec01e"/>
      <stop offset="0.2" stop-color="#fca71b"/>
      <stop offset="0.282" stop-color="#fa8316"/>
      <stop offset="0.368" stop-color="#f85510"/>
      <stop offset="0.456" stop-color="#f51e09"/>
      <stop offset="0.5" stop-color="#f30005"/>
      <stop offset="0.503" stop-color="#f20007"/>
      <stop offset="0.597" stop-color="#e1003b"/>
      <stop offset="0.688" stop-color="#d30067"/>
      <stop offset="0.776" stop-color="#c70088"/>
      <stop offset="0.859" stop-color="#bf00a0"/>
      <stop offset="0.936" stop-color="#bb00af"/>
      <stop offset="1" stop-color="#b900b4"/>
    </linearGradient>
  </defs>
  <path id="Path_13079" data-name="Path 13079" d="M21,42h0A21,21,0,0,1,0,21H0A21,21,0,0,1,21,0h0A21,21,0,0,1,42,21h0A21,21,0,0,1,21,42Z" fill="url(#linear-gradient)"/>
  <g id="Group_7864" data-name="Group 7864" transform="translate(6.661 6.665)">
    <path id="Path_13080" data-name="Path 13080" d="M172.939,161.283c3.826,0,4.28.013,5.792.084a7.865,7.865,0,0,1,2.663.5,4.741,4.741,0,0,1,2.717,2.717,7.974,7.974,0,0,1,.5,2.663c.067,1.512.084,1.966.084,5.792s-.013,4.28-.084,5.792a7.865,7.865,0,0,1-.5,2.663,4.741,4.741,0,0,1-2.717,2.717,7.974,7.974,0,0,1-2.663.5c-1.512.067-1.966.084-5.792.084s-4.28-.013-5.792-.084a7.865,7.865,0,0,1-2.663-.5,4.741,4.741,0,0,1-2.717-2.717,7.974,7.974,0,0,1-.5-2.663c-.067-1.512-.084-1.966-.084-5.792s.013-4.28.084-5.792a7.865,7.865,0,0,1,.5-2.663,4.741,4.741,0,0,1,2.717-2.717,7.974,7.974,0,0,1,2.663-.5c1.512-.071,1.966-.084,5.792-.084m0-2.583c-3.893,0-4.381.017-5.909.088a10.536,10.536,0,0,0-3.482.668,6.919,6.919,0,0,0-2.537,1.651,7.056,7.056,0,0,0-1.655,2.541,10.6,10.6,0,0,0-.668,3.482c-.071,1.529-.088,2.016-.088,5.909s.017,4.381.088,5.909a10.537,10.537,0,0,0,.668,3.482,7.355,7.355,0,0,0,4.2,4.187,10.6,10.6,0,0,0,3.482.668c1.529.071,2.016.088,5.909.088s4.381-.017,5.909-.088a10.537,10.537,0,0,0,3.482-.668,7.355,7.355,0,0,0,4.187-4.2,10.6,10.6,0,0,0,.668-3.482c.071-1.529.088-2.016.088-5.909s-.017-4.381-.088-5.909a10.536,10.536,0,0,0-.668-3.482,7.355,7.355,0,0,0-4.2-4.187,10.6,10.6,0,0,0-3.482-.668c-1.525-.067-2.012-.084-5.905-.084Z" transform="translate(-158.6 -158.7)" fill="#fff"/>
    <path id="Path_13081" data-name="Path 13081" d="M332.063,324.7a7.363,7.363,0,1,0,7.363,7.363A7.363,7.363,0,0,0,332.063,324.7Zm0,12.142a4.78,4.78,0,1,1,4.78-4.78A4.78,4.78,0,0,1,332.063,336.842Z" transform="translate(-317.724 -317.728)" fill="#fff"/>
    <circle id="Ellipse_409" data-name="Ellipse 409" cx="1.722" cy="1.722" r="1.722" transform="translate(20.269 4.96)" fill="#fff"/>
  </g>
</svg>
