<svg xmlns="http://www.w3.org/2000/svg" width="20.79" height="17.5" viewBox="0 0 20.79 17.5">
  <g id="noun-swap-3139205" transform="translate(0)">
    <path id="Path_14489" data-name="Path 14489" d="M103.7,55.638H85.1a1.1,1.1,0,0,0-1.006.656,1.074,1.074,0,0,0,.219,1.18l5.333,5.552a1.082,1.082,0,0,0,1.574-1.486l-3.563-3.716H103.7a1.1,1.1,0,0,0,1.093-1.093,1.082,1.082,0,0,0-1.093-1.093Z" transform="translate(-84.001 -45.868)" fill="#3c78f1"/>
    <path id="Path_14490" data-name="Path 14490" d="M85.048,314.036h18.579a1.1,1.1,0,0,0,1.006-.656,1.074,1.074,0,0,0-.219-1.18L99.1,306.648a1.109,1.109,0,0,0-.787-.328,1.093,1.093,0,0,0-.787,1.836l3.563,3.716H85.048a1.1,1.1,0,0,0-1.093,1.093,1.077,1.077,0,0,0,1.093,1.071Z" transform="translate(-83.931 -306.32)" fill="#3c78f1"/>
  </g>
</svg>
