<svg xmlns="http://www.w3.org/2000/svg" width="42" height="42" viewBox="0 0 42 42">
  <g id="layer1" transform="translate(-0.12 0)">
    <rect id="rect2990-1" width="42" height="42" rx="21" transform="translate(0.12 0)" fill="#55acee"/>
    <path id="rect2989" d="M108.467,672.306a5.533,5.533,0,0,0-5.229,6.77,15.658,15.658,0,0,1-11.367-5.762,5.517,5.517,0,0,0,1.707,7.363,5.5,5.5,0,0,1-2.5-.691c0,.023,0,.048,0,.071a5.517,5.517,0,0,0,4.425,5.405,5.546,5.546,0,0,1-1.453.193,5.464,5.464,0,0,1-1.037-.1,5.518,5.518,0,0,0,5.149,3.83,11.054,11.054,0,0,1-6.846,2.36A11.173,11.173,0,0,1,90,691.672a15.683,15.683,0,0,0,24.144-13.213c0-.239,0-.479-.015-.716a11.17,11.17,0,0,0,2.751-2.854,10.973,10.973,0,0,1-3.167.869,5.526,5.526,0,0,0,2.425-3.051,11.045,11.045,0,0,1-3.5,1.34,5.507,5.507,0,0,0-4.026-1.741C108.563,672.306,108.515,672.3,108.467,672.306Z" transform="translate(-82.44 -662.23)" fill="#fff"/>
  </g>
</svg>
