<svg id="Layer_1" data-name="Layer 1" xmlns="http://www.w3.org/2000/svg" viewBox="0 0 60 60"><defs><style>.cls-1{fill:#0080ff;}.cls-2{fill:#f60;}.cls-3{fill:#fff;}</style></defs><title>Artboard 2</title><path class="cls-1" d="M43.5,30.42a7.58,7.58,0,0,1-.3-.77c0-.07,0-.2.11-.27.68-.69,1.37-1.37,2.06-2.05a.64.64,0,0,0,.21-.5V17a.61.61,0,0,0-.19-.48c-.45-.43-.89-.87-1.34-1.32l.68-.66c.55.57,1.12,1.12,1.66,1.7a.68.68,0,0,1,.13.42q0,5.28,0,10.55a.68.68,0,0,1-.16.44c-.88.91-1.78,1.8-2.67,2.69A1,1,0,0,1,43.5,30.42Z"/><path class="cls-1" d="M40.8,23.34a2,2,0,0,1,0-2.86c.78-.77,1.54-1.55,2.32-2.31.43-.43.87-.84,1.36-1.31-.34-.32-.63-.57-.9-.85s-.25-.14-.39,0c-.5.51-1,1-1.51,1.52a.71.71,0,0,0-.16.4,2.42,2.42,0,0,1-1.35,2.11,2.5,2.5,0,0,1-1.48.25,2.17,2.17,0,0,1-1.23-.42,2.57,2.57,0,0,1-1-2.7,2.49,2.49,0,0,1,2.33-2,.74.74,0,0,0,.46-.2c.48-.45.93-.92,1.39-1.38.28-.28.28-.28,0-.57L35.43,7.87a.78.78,0,0,0-1.29,0q-9.23,9.23-18.46,18.45a.89.89,0,0,0,0,1.45Q20.94,33,26.18,38.25c.94.94,1.88,1.89,2.83,2.83.41.4.82.45,1.15.13.7-.68,1.41-1.35,2.1-2S33.4,38,34,37.4c.33-.33.69-.64,1-1l1.3-1.3c.18-.18.34-.37.5-.56a.26.26,0,0,0,0-.21l-1-2.44c-.17-.41-.37-.82-.51-1.25a4.32,4.32,0,0,1-.18-2.17,3.7,3.7,0,0,1,.79-1.73,3.51,3.51,0,0,1,1.46-1,3.7,3.7,0,0,1,2.2-.34,3.78,3.78,0,0,1,2.63,1.91c.23.39.39.81.62,1.29L44.46,27l-.28-.31C43.05,25.58,41.94,24.44,40.8,23.34Zm-5.68,3.5a1.29,1.29,0,0,1-.89.85.87.87,0,0,1-1.1-1c0-.32.16-.63.23-.95a1.66,1.66,0,0,0-.1-1.23l-.24.19-1.6,1.6c-.17.16-.16.27-.06.47a13.34,13.34,0,0,1,.8,1.77,2.75,2.75,0,0,1-.87,3,3.17,3.17,0,0,1-4.19.3,5.62,5.62,0,0,1-.5-.35c-.14-.12-.23-.11-.35,0s-.39.39-.59.58a.82.82,0,0,1-1.2,0,.85.85,0,0,1,0-1.2c.2-.21.4-.42.61-.61s.17-.22,0-.4a4,4,0,0,1-.72-3A2.43,2.43,0,0,1,25,25.58a1,1,0,0,1,1.21-.25.94.94,0,0,1,.38,1.2,2.81,2.81,0,0,0-.12,2.11c0,.05.05.09.11.21.43-.43.8-.83,1.19-1.22s.59-.62.91-.91c.17-.15.16-.28.06-.47A5.63,5.63,0,0,1,28,24.3a2.73,2.73,0,0,1,1.6-2.8,3.13,3.13,0,0,1,3,.31c.21.12.43.34.63.32s.33-.3.5-.46a.84.84,0,0,1,1.45.39.79.79,0,0,1-.24.75c-.17.19-.44.36-.48.57s.22.41.33.62A3.18,3.18,0,0,1,35.12,26.84Z"/><path class="cls-2" d="M20.7,36.86l1.82,1.84c1.49,1.49,3,3,4.46,4.46a3.81,3.81,0,0,0,5.4,0c2.12-2.1,4.22-4.22,6.34-6.33a.42.42,0,0,0,.11-.53q-1.21-2.84-2.41-5.68a2.94,2.94,0,0,1,.18-3.05l0,0a3.14,3.14,0,0,1,2.59-1.06,2.67,2.67,0,0,1,2.2,1.78c1,2.26,1.93,4.53,2.88,6.81a15,15,0,0,1,.77,2,2.61,2.61,0,0,1-.71,2.59Q41,43.27,37.66,46.85a2.49,2.49,0,0,1-1.9.84H22.82a2.22,2.22,0,0,1-2-1.68,4.59,4.59,0,0,1-.2-1.32c0-2.39,0-4.78,0-7.16,0-.22,0-.43,0-.64Z"/><path class="cls-2" d="M29.24,54.3c-1.95,0-3.91,0-5.87,0a2.38,2.38,0,0,1-2.57-2.06,3.15,3.15,0,0,1,.5-2.59,2,2,0,0,1,1.74-.9H35.22a2.27,2.27,0,0,1,2.4,1.79,3.21,3.21,0,0,1-.38,2.76,2,2,0,0,1-1.82,1Z"/><path class="cls-1" d="M42.22,12l-.69.7c-.59-.61-1.18-1.22-1.78-1.82l-3.6-3.61a1.81,1.81,0,0,0-2.74,0Q24.2,16.47,15,25.68a1.8,1.8,0,0,0-.35,2.21,1,1,0,0,0,.22.28l13.69,13.7a1.44,1.44,0,0,0,.87.38,2,2,0,0,0,1.7-.68c1.95-2,3.93-3.94,5.9-5.91l.19-.18s.05,0,.06,0c.42.79.41.78-.23,1.42l-5.53,5.54a2.55,2.55,0,0,1-3,.46,3.68,3.68,0,0,1-.82-.6Q21,35.62,14.26,28.88a2.52,2.52,0,0,1-.8-1.87,2.41,2.41,0,0,1,.7-1.72c.55-.54,1.06-1.12,1.6-1.66s1.18-1.12,1.75-1.69,1.09-1.15,1.65-1.71,1.14-1.09,1.7-1.65,1.12-1.17,1.69-1.74c.82-.82,1.67-1.61,2.49-2.43q2.37-2.36,4.73-4.72c1-1,1.89-2,2.85-2.93a3.12,3.12,0,0,1,1.71-1,2.15,2.15,0,0,1,1.94.44c1.65,1.57,3.26,3.19,4.89,4.78Z"/><path class="cls-2" d="M38.9,19a5.29,5.29,0,0,1-.49-.26,2.61,2.61,0,0,1-.24-.23c-.63-.55-.46-1,0-1.47s1-.92,1.43-1.39l3.17-3.22c.6-.61,1.2-1.22,1.81-1.81a2.73,2.73,0,0,1,.52-.37.62.62,0,0,1,.78.12,2.18,2.18,0,0,1,.6.78c.15.3-.09.56-.29.77l-3.82,3.83c-1,1-2,2-3,2.93A2.49,2.49,0,0,1,38.9,19Z"/><path class="cls-3" d="M34.81,24c-.11-.21-.36-.44-.33-.62s.31-.38.48-.57a.79.79,0,0,0,.24-.75.84.84,0,0,0-1.45-.39c-.17.16-.32.44-.5.46s-.42-.2-.63-.32a3.13,3.13,0,0,0-3-.31A2.73,2.73,0,0,0,28,24.3a5.63,5.63,0,0,0,.74,1.95c.1.19.11.32-.06.47-.32.29-.61.6-.91.91s-.76.79-1.19,1.22c-.06-.12-.09-.16-.11-.21a2.81,2.81,0,0,1,.12-2.11.94.94,0,0,0-.38-1.2,1,1,0,0,0-1.21.25,2.43,2.43,0,0,0-.61,1.34,4,4,0,0,0,.72,3c.13.18.11.27,0,.4s-.41.4-.61.61a.85.85,0,0,0,0,1.2.82.82,0,0,0,1.2,0c.2-.19.4-.38.59-.58s.21-.15.35,0a5.62,5.62,0,0,0,.5.35,3.17,3.17,0,0,0,4.19-.3,2.75,2.75,0,0,0,.87-3,13.34,13.34,0,0,0-.8-1.77c-.1-.2-.11-.31.06-.47l1.6-1.6.24-.19a1.66,1.66,0,0,1,.1,1.23c-.07.32-.18.63-.23.95a.87.87,0,0,0,1.1,1,1.29,1.29,0,0,0,.89-.85A3.18,3.18,0,0,0,34.81,24ZM29,30.63a1.32,1.32,0,0,1-1.28-.27c-.05,0-.08-.2,0-.24.67-.7,1.36-1.39,2.07-2.11A1.71,1.71,0,0,1,29,30.63ZM30.36,25a1.29,1.29,0,0,1,0-1.57A1.24,1.24,0,0,1,32,23.3Z"/><path class="cls-1" d="M29,30.63a1.32,1.32,0,0,1-1.28-.27c-.05,0-.08-.2,0-.24.67-.7,1.36-1.39,2.07-2.11A1.71,1.71,0,0,1,29,30.63Z"/><path class="cls-1" d="M32,23.3,30.36,25a1.29,1.29,0,0,1,0-1.57A1.24,1.24,0,0,1,32,23.3Z"/></svg>