<svg id="Layer_1" data-name="Layer 1" xmlns="http://www.w3.org/2000/svg" viewBox="0 0 60 60"><defs><style>.cls-1{fill:#0080ff;}.cls-2{fill:#f60;}</style></defs><title>Artboard 3</title><path class="cls-1" d="M45.88,29.14A15.92,15.92,0,0,1,32.2,44.79a15.23,15.23,0,0,1-8.09-1,1.74,1.74,0,0,0-1.64.1c-2.26,1.27-4.54,2.5-6.81,3.75-.28.16-.54.26-.82,0a.64.64,0,0,1-.11-.81.5.5,0,0,1,0-.13c.8-2.37,1.59-4.74,2.41-7.09A1.58,1.58,0,0,0,17,38.09,15.81,15.81,0,1,1,45.57,26.4C45.72,27.3,45.78,28.22,45.88,29.14Z"/><path class="cls-2" d="M32.85,50.63a20.3,20.3,0,0,0,7-2.2A21.24,21.24,0,0,0,51.48,32,21.69,21.69,0,0,0,8.63,25.31a21.84,21.84,0,0,0,.93,11.13,1.68,1.68,0,0,1,.06.94,1,1,0,0,1-1.41.6,9,9,0,0,1-6.13-7A9.32,9.32,0,0,1,8,20.33a.92.92,0,0,0,.47-.44C11.9,12.27,17.72,7.54,26,6.06A23.28,23.28,0,0,1,51.46,19.7a1.18,1.18,0,0,0,.72.71,9.37,9.37,0,0,1-.09,17.48,1.06,1.06,0,0,0-.54.5,23.3,23.3,0,0,1-18,13.89,1.44,1.44,0,0,0-1.17.72,2.83,2.83,0,0,1-3.36,1.16,2.92,2.92,0,1,1,3.59-4C32.71,50.29,32.76,50.44,32.85,50.63Z"/></svg>