<svg id="Layer_1" data-name="Layer 1" xmlns="http://www.w3.org/2000/svg" viewBox="0 0 60 60"><defs><style>.cls-1{fill:#f60;}.cls-2{fill:#0080ff;}</style></defs><title>Artboard 1</title><path class="cls-1" d="M34.89,27h0l-3.18-.73-8.86,2.08-3.05.72h0L6.28,32.18c4.84,7.4,9.63,14.76,14.46,22.16l33-22C47.4,30.58,41.17,28.81,34.89,27Zm10.68,3.72c1,.31,2,.58,3,.87l.36.11-1,.39L26.12,40.52a.7.7,0,0,1-.6,0c-1.45-.66-2.9-1.29-4.35-1.93l-.35-.17,2.71-.87q10.53-3.39,21-6.79A1.63,1.63,0,0,1,45.57,30.74ZM27.12,35.08h0l-5.4-1.84s0,0,0-.06l1.76-.44,1.12-.29h.07l.49-.13,6.3-1.6h.06a.31.31,0,0,1,.19,0l6.48,1.57.13.06-.31.11-9.31,3a1.09,1.09,0,0,1-.26,0l-.24-.08-.94-.28h0ZM39,28.9l5.07,1.43.23.09-2.68.86L39.34,32a.81.81,0,0,1-.38,0L32.53,30.5v-.05l.72-.2h0l1.68-.42,3.69-.92A.75.75,0,0,1,39,28.9ZM15.17,30.83l7.29-1.67.49-.11L32.06,27l1.4.35h0l1,.24h0c1.17.32,2.33.67,3.49,1l-4.88,1.24-1.35.33L25,31.91l-1.75.45h0c-.76.19-1.51.37-2.26.57a.66.66,0,0,1-.24,0l-5.87-2C15,30.88,15.11,30.84,15.17,30.83Zm-2.75,9.54c-1.61-2.49-3.24-5-4.86-7.45,0-.09-.11-.18-.19-.3L10.19,32l3.74-.86a.86.86,0,0,1,.32,0l12.51,4.26,1,.35-.36.14L12.91,40.53A.34.34,0,0,1,12.42,40.37Zm8.51,13c-2.7-4.15-5.4-8.28-8.11-12.43l2-.65c1.71-.54,3.42-1.11,5.14-1.64a.69.69,0,0,1,.47,0q6.68,3,13.34,5.91l.21.1Zm13.73-9.14a.5.5,0,0,1-.55,0L26.71,41l-.35-.16.34-.14L49.34,32a1,1,0,0,1,.59,0c.72.19,1.43.4,2.2.62l-.28.2Q43.26,38.54,34.66,44.27Z"/><path class="cls-2" d="M39,16.05a10.25,10.25,0,0,1-2.13,6.12c-1.16,1.65-2.41,3.23-3.63,4.85A23.75,23.75,0,0,0,29,35.16a.76.76,0,0,1-.49.47.77.77,0,0,1-.52-.45,25,25,0,0,0-4.53-8.57c-1.27-1.67-2.55-3.34-3.72-5.08A9.74,9.74,0,0,1,18,15.39a10.48,10.48,0,0,1,20.87-.46C38.93,15.3,38.93,15.67,39,16.05ZM28.47,9a7.12,7.12,0,1,0,7.12,7.11A7.13,7.13,0,0,0,28.47,9Z"/><path class="cls-1" d="M18.32,14.81l6.71.55a.48.48,0,0,0,.51-.23,3.3,3.3,0,0,1,2.32-1.39,1.2,1.2,0,0,0,.2,0s0,0,.08,0c.14-2,.06-4.05.33-6.06h.17c0,.32.1.63.11,1,0,1.53.05,3.06.07,4.59,0,.2,0,.39,0,.49a15.14,15.14,0,0,1,1.51.77,3.09,3.09,0,0,1,.76.81.53.53,0,0,0,.51.24L38,15.07a2,2,0,0,1,.55,0l-6.94,1.08.07,1.49,23.1-.91,0,.1a2.69,2.69,0,0,1-.55.17c-1.27.17-2.53.38-3.81.47-3.49.26-7,.47-10.46.7a.42.42,0,0,0-.31.17c-.08.2.11.21.25.25a1.81,1.81,0,0,1-.48,3.54,1.8,1.8,0,0,1-.56-3.52c.17-.06.36-.07.24-.37-.65.07-1.32.11-2,.21q-3.06.48-6.11,1a1.81,1.81,0,0,0-.69.32A3.43,3.43,0,0,1,26,19.61a1.09,1.09,0,0,0-.42-.26,63.72,63.72,0,0,0-7.51-1.3,1.51,1.51,0,0,0-.3,0c-.1.25,0,.34.23.42a1.79,1.79,0,0,1-.65,3.48,1.79,1.79,0,0,1-.39-3.53c.16,0,.31,0,.3-.28s-.21-.2-.35-.21c-3.18-.28-6.37-.54-9.56-.85-1.49-.14-3-.39-4.45-.6a5.31,5.31,0,0,1-.75-.22l0-.09,22.71,1.41L25,16.06l-6.7-1.14Zm-1,4a1.38,1.38,0,0,0,0,2.75,1.39,1.39,0,0,0,1.37-1.37A1.37,1.37,0,0,0,17.36,18.78Zm20.72,1.56a1.36,1.36,0,0,0,1.34,1.38,1.38,1.38,0,0,0,1.39-1.38A1.36,1.36,0,0,0,39.44,19,1.35,1.35,0,0,0,38.08,20.34ZM27.94,15.05c-.51,0-1,0-1.45.13a1.25,1.25,0,0,0-.75,1.55c.63-.56,1.43-.47,2.2-.6Zm2.88,1.66.11-.08a8.7,8.7,0,0,0-.29-1,.63.63,0,0,0-.38-.35,3.46,3.46,0,0,0-1.63-.14v1A3.88,3.88,0,0,1,30.82,16.71Z"/></svg>