<?xml version="1.0" encoding="utf-8"?>
<!-- Generator: Adobe Illustrator 23.0.3, SVG Export Plug-In . SVG Version: 6.00 Build 0)  -->
<svg version="1.0" id="Layer_1" xmlns="http://www.w3.org/2000/svg" xmlns:xlink="http://www.w3.org/1999/xlink" x="0px" y="0px"
	 viewBox="0 0 265.49 250.58" style="enable-background:new 0 0 265.49 250.58;" xml:space="preserve">
<style type="text/css">
	.st0{fill-rule:evenodd;clip-rule:evenodd;fill:#FFCE00;}
	.st1{fill-rule:evenodd;clip-rule:evenodd;fill:#FF515D;}
	.st2{fill-rule:evenodd;clip-rule:evenodd;fill:#FFFFFF;}
</style>
<g>
	<g>
		<path id="XMLID_16_" class="st0" d="M104.15,167.02c0,7.82-11.88,7.82-11.88,0c0-3.26-0.47-9.65,5.94-9.65
			C104.62,157.37,104.15,163.76,104.15,167.02L104.15,167.02z M100.46,195.41c4.61-4.61,11.61,2.39,7,7
			c-14.05,14.04-37.06,14.04-51.11,0c-4.61-4.61,2.39-11.61,7-7C73.53,205.59,90.28,205.59,100.46,195.41z M65.59,157.37
			c8.15,0,8.15,15.59,0,15.59C57.44,172.96,57.44,157.37,65.59,157.37z M81.9,128.74c27.89,0,50.49,22.61,50.49,50.49
			s-22.61,50.49-50.49,50.49c-27.89,0-50.49-22.61-50.49-50.49S54.02,128.74,81.9,128.74z"/>
		<path id="XMLID_15_" class="st0" d="M215.17,167.02c0,7.82-11.88,7.82-11.88,0c0-3.26-0.47-9.65,5.94-9.65
			C215.64,157.37,215.17,163.76,215.17,167.02L215.17,167.02z M211.47,195.41c4.61-4.61,11.61,2.39,7,7
			c-14.05,14.04-37.06,14.04-51.11,0c-4.61-4.61,2.39-11.61,7-7C184.55,205.59,201.3,205.59,211.47,195.41z M176.61,157.37
			c8.15,0,8.15,15.59,0,15.59C168.46,172.96,168.46,157.37,176.61,157.37z M192.92,128.74c27.89,0,50.49,22.61,50.49,50.49
			s-22.61,50.49-50.49,50.49c-27.89,0-50.49-22.61-50.49-50.49S165.04,128.74,192.92,128.74z"/>
	</g>
	<g>
		<path id="XMLID_14_" class="st1" d="M84.1,21.3h106.63c9.36,0,17.02,7.65,17.02,17.02v60.51c0,9.36-7.65,17.02-17.02,17.02h-32.54
			l-7.61,8.42l-13.17,14.59l-13.17-14.59l-7.6-8.42H89.08H84.1c-9.36,0-17.02-7.65-17.02-17.02V38.32
			C67.09,28.96,74.74,21.3,84.1,21.3z"/>
		<path id="XMLID_13_" class="st2" d="M139.91,37.46l6.45,19.99c0.35,1.09,1.36,1.82,2.5,1.82l21.01-0.04
			c2.55,0,3.61,3.26,1.54,4.75L154.4,76.29c-0.92,0.67-1.31,1.86-0.96,2.94l6.53,19.97c0.79,2.42-1.98,4.44-4.04,2.94l-16.97-12.38
			c-0.92-0.67-2.17-0.67-3.09,0l-16.97,12.38c-2.06,1.5-4.83-0.51-4.04-2.94l6.53-19.97c0.35-1.08-0.03-2.27-0.96-2.94l-17.02-12.31
			c-2.06-1.49-1-4.76,1.54-4.75l21.01,0.04c1.14,0,2.15-0.73,2.5-1.82l6.45-19.99C135.7,35.03,139.13,35.03,139.91,37.46z"/>
	</g>
</g>
</svg>
