<svg width="1em" height="1em" viewBox="0 0 24 24" xmlns="http://www.w3.org/2000/svg" focusable="false" aria-hidden="true" role="img"><g fill="none" fill-rule="evenodd"><path d="M21 1a.5.5 0 01.09.992L21 2h-1v11.39a1.91 1.91 0 013.126.205c.323.536.356 1.183.118 1.734l-.05.103.12.116c.475.498.729 1.178.68 1.88l-.018.175a2.48 2.48 0 01-1.85 2.056l-.123.015-.028-.001V21h.525a.5.5 0 01.09.992L22.5 22h-21a.5.5 0 01-.09-.992L1.5 21h.525v-1.327H2l-.123-.015a2.483 2.483 0 01-1.198-4.115l.112-.111-.038-.074a1.865 1.865 0 01-.164-.623l-.006-.164a1.904 1.904 0 011.4-1.828l.156-.036a1.911 1.911 0 011.863.707L4 2H3a.5.5 0 01-.09-.992L3 1h18zm-1 18.24V21h1.025v-1.327H21l-.123-.015A2.494 2.494 0 0120 19.24zm-15.999.003a2.484 2.484 0 01-.876.416l-.122.015-.028-.001V21H4z" fill="#0068ef"></path><path d="M11.5 16v5H8v-4.5a.5.5 0 01.5-.5h3zm4 0a.5.5 0 01.5.5V21h-3.5v-5h3zm6.77-1.888c.209.346.16.79-.118 1.084a.5.5 0 00-.128.249l-.009.105a.5.5 0 00.249.433c.52.302.805.887.721 1.48l-.025.135a1.48 1.48 0 01-.947 1.051l-.08.024h-.863l-.079-.024a1.485 1.485 0 01-.26-2.68.5.5 0 00.102-.78.868.868 0 01-.25-.614.91.91 0 011.687-.463zm-19 0c.209.346.16.79-.118 1.084a.5.5 0 00-.128.249l-.009.105a.5.5 0 00.249.433c.52.302.805.887.721 1.48l-.025.135a1.48 1.48 0 01-.947 1.051l-.08.024H2.07l-.079-.024a1.485 1.485 0 01-.26-2.68.5.5 0 00.102-.78.868.868 0 01-.25-.614.91.91 0 011.687-.463z" fill="#e8f2ff"></path><path d="M8.5 12a.5.5 0 01.5.5v1a.5.5 0 01-.5.5h-1a.5.5 0 01-.5-.5v-1a.5.5 0 01.5-.5h1zm4 0a.5.5 0 01.5.5v1a.5.5 0 01-.5.5h-1a.5.5 0 01-.5-.5v-1a.5.5 0 01.5-.5h1zm4 0a.5.5 0 01.5.5v1a.5.5 0 01-.5.5h-1a.5.5 0 01-.5-.5v-1a.5.5 0 01.5-.5h1zm-8-4a.5.5 0 01.5.5v1a.5.5 0 01-.5.5h-1a.5.5 0 01-.5-.5v-1a.5.5 0 01.5-.5h1zm4 0a.5.5 0 01.5.5v1a.5.5 0 01-.5.5h-1a.5.5 0 01-.5-.5v-1a.5.5 0 01.5-.5h1zm4 0a.5.5 0 01.5.5v1a.5.5 0 01-.5.5h-1a.5.5 0 01-.5-.5v-1a.5.5 0 01.5-.5h1zm-8-4a.5.5 0 01.5.5v1a.5.5 0 01-.5.5h-1a.5.5 0 01-.5-.5v-1a.5.5 0 01.5-.5h1zm4 0a.5.5 0 01.5.5v1a.5.5 0 01-.5.5h-1a.5.5 0 01-.5-.5v-1a.5.5 0 01.5-.5h1zm4 0a.5.5 0 01.5.5v1a.5.5 0 01-.5.5h-1a.5.5 0 01-.5-.5v-1a.5.5 0 01.5-.5h1z" fill="#fff"></path></g></svg>