<svg width="1em" height="1em" viewBox="0 0 24 24" xmlns="http://www.w3.org/2000/svg" focusable="false" aria-hidden="true" role="img"><g fill="none" fill-rule="evenodd"><path d="M8 20.064c0 1.051-.971 1.863-2.158 1.931L5.679 22H5.32c-1.189 0-2.204-.746-2.312-1.77L3 20.09V18h-.502a1.499 1.499 0 01-.978-.407l-.11-.114a1.664 1.664 0 01-.406-.979l-.003-.153v-3.938c.026-.939.4-1.792.994-2.41H1.86a1.396 1.396 0 01-.941-.344 1.23 1.23 0 01-.412-.784L.5 8.741v-.35c0-.735.601-1.319 1.35-1.385L1.992 7h1.387l.178-.595.411-1.271c.077-.309.195-.606.358-.895.252-.421.622-.76 1.085-.981a3.227 3.227 0 011.235-.259l.203.007h10.312a3.253 3.253 0 011.491.261c.442.213.812.55 1.071.984.117.208.212.427.283.645l.442 1.52.174.583L22.008 7c.765 0 1.412.54 1.485 1.255l.007.136v.35c0 .349-.153.678-.419.914a1.386 1.386 0 01-.79.339l-.145.006h-.139c.541.564.9 1.327.979 2.178l.014.234v3.922c.012.422-.134.834-.408 1.145-.245.28-.576.46-.943.508l-.16.013H21v2.064c0 1.049-.958 1.863-2.13 1.931l-.162.005h-.416c-1.19 0-2.2-.768-2.286-1.794L16 20.064V18H8v2.065z" fill="#0068ef"></path><path d="M20 18v2.064l-.007.097c-.063.418-.526.783-1.14.833l-.145.006h-.416l-.144-.006-.14-.017c-.544-.09-.943-.43-1-.816L17 20.064V18h3zM7 18v2.064l-.007.097c-.065.416-.537.783-1.166.833L5.679 21H5.32l-.146-.006-.14-.016c-.553-.088-.959-.424-1.026-.804L4 20.078 4 18h3zM22.008 8l.092.007c.206.03.358.163.392.317l.008.067v.35l-.01.058a.247.247 0 01-.073.108.38.38 0 01-.19.087L22.15 9h-.938l-.294-1h1.09zM3.081 8l-.293 1h-.934l-.079-.006a.379.379 0 01-.192-.087.247.247 0 01-.074-.108L1.5 8.742V8.39l.008-.067c.034-.154.186-.286.392-.317L1.992 8H3.08z" fill="#e8f2ff"></path><path d="M18.5 12a1.5 1.5 0 110 3 1.5 1.5 0 010-3zm-13 0a1.5 1.5 0 110 3 1.5 1.5 0 010-3zm9.5 1l.09.008a.5.5 0 010 .984L15 14H9l-.09-.008a.5.5 0 010-.984L9 13h6zm2.416-8.998c.294.007.567.067.824.176.244.118.466.321.619.575.078.14.145.295.197.457l.047.165.386 1.324.492 1.65.202.686-.187-.023-.19-.012H4.212l-.199.013-.195.024.203-.69.49-1.646.419-1.293.052-.184c.056-.177.125-.334.208-.483.146-.242.368-.445.633-.573.24-.1.51-.16.786-.167l.208.003 10.376.002.223-.004z" fill="#fff"></path></g></svg>