<svg xmlns="http://www.w3.org/2000/svg" width="48" height="48" viewBox="0 0 48 48"><defs><style>.a{fill:none;}.b{fill:#4d4d77;}</style></defs><g transform="translate(48) rotate(90)"><path d="M20.36,18"/><path class="a" d="M0,0H48V48H0Z"/><path class="b" d="M21,16.527v-1.79l-7.158-4.474V5.342a1.342,1.342,0,0,0-2.684,0v4.921L4,14.737v1.79l7.158-2.237v4.921l-1.79,1.342V21.9L12.5,21l3.132.895V20.554l-1.79-1.342V14.29Z" transform="translate(14.5 17.104)"/><path class="b" d="M21,16.527v-1.79l-7.158-4.474V5.342a1.342,1.342,0,0,0-2.684,0v4.921L4,14.737v1.79l7.158-2.237v4.921l-1.79,1.342V21.9L12.5,21l3.132.895V20.554l-1.79-1.342V14.29Z" transform="translate(29.5 33) rotate(-180)"/></g></svg>