<svg width="19" height="20" viewBox="0 0 19 20" fill="none" xmlns="http://www.w3.org/2000/svg">
<path d="M18.3837 0C17.3461 1.24397 16.309 2.48859 15.2707 3.7319C13.9932 5.26153 12.7145 6.7903 11.4364 8.31949C11.3994 8.36362 11.3639 8.40928 11.3149 8.46993C13.8713 12.2994 16.4284 16.1298 18.9998 19.9817C18.9307 19.988 18.8845 19.9959 18.8382 19.9959C17.0614 19.9965 15.2846 19.9948 13.5078 19.9998C13.3828 20.0002 13.3177 19.9541 13.2503 19.853C11.603 17.3801 9.95254 14.9093 8.30227 12.4384C8.26024 12.3753 8.2163 12.3136 8.16329 12.2368C7.68001 12.8145 7.21004 13.3758 6.7405 13.9376C5.08727 15.9157 3.43488 17.8947 1.77743 19.8689C1.72124 19.9356 1.61246 19.9887 1.52692 19.9909C1.03477 20.0024 0.542205 19.9965 0 19.9965C2.48734 17.0203 4.94913 14.075 7.41725 11.122C7.38092 11.0642 7.34903 11.0103 7.31418 10.9583C4.92758 7.38249 2.54057 3.80712 0.154403 0.23088C0.104977 0.156746 0.0631552 0.0771773 0.0179538 0C1.90268 0 3.7872 0 5.67193 0C5.68671 0.0282621 5.69939 0.0584808 5.71692 0.0847863C7.3089 2.47011 8.90129 4.85521 10.4931 7.24075C10.5167 7.27619 10.5345 7.31597 10.5596 7.36206C12.6325 4.88217 14.6733 2.44098 16.714 0C17.2705 0 17.8271 0 18.3837 0ZM16.6998 18.7423C16.64 18.6512 16.6024 18.5917 16.5629 18.5336C15.5385 17.0251 14.5141 15.5168 13.4894 14.0084C10.6584 9.84064 7.82639 5.67351 5.00024 1.50224C4.89294 1.34397 4.78374 1.28853 4.59998 1.29136C3.89851 1.30267 3.19663 1.29571 2.49495 1.29636C2.43559 1.29636 2.37624 1.30288 2.2964 1.30745C2.34012 1.37745 2.36843 1.4268 2.40032 1.47354C6.28067 7.18749 10.1617 12.9008 14.0399 18.6162C14.1096 18.7189 14.1816 18.7578 14.3031 18.7567C15.0364 18.7508 15.7698 18.7539 16.5032 18.7534C16.5576 18.7534 16.6121 18.7476 16.7 18.7423H16.6998Z" fill="black"/>
</svg>
